<?xml version="1.0" standalone="no"?>
<!DOCTYPE svg PUBLIC "-//W3C//DTD SVG 20010904//EN"
 "http://www.w3.org/TR/2001/REC-SVG-20010904/DTD/svg10.dtd">
<svg version="1.0" xmlns="http://www.w3.org/2000/svg"
 width="700.000000pt" height="700.000000pt" viewBox="0 0 700.000000 700.000000"
 preserveAspectRatio="xMidYMid meet">
<metadata>
Created by potrace 1.11, written by Peter Selinger 2001-2013
</metadata>
<g transform="translate(0.000000,700.000000) scale(0.100000,-0.100000)"
fill="#000000" stroke="none">
<path d="M2060 6000 l-1435 -829 -3 -1669 -2 -1670 1440 -831 1440 -831 1440
831 1440 832 -2 1669 -3 1669 -1430 826 c-786 454 -1434 827 -1440 829 -5 2
-656 -370 -1445 -826z m290 -775 l0 -105 90 0 90 0 0 -110 0 -110 175 0 174 0
3 108 3 107 88 3 87 3 0 104 0 105 250 0 250 0 0 -855 0 -855 -250 0 -250 0 0
370 0 370 -85 0 -84 0 -3 -102 -3 -103 -177 -3 -178 -2 0 105 0 105 -90 0 -90
0 0 -370 0 -370 -250 0 -250 0 0 855 0 855 250 0 250 0 0 -105z m2800 -110 l0
-215 -430 0 -430 0 0 -425 0 -425 428 -2 427 -3 3 -212 2 -213 -680 0 -680 0
0 855 0 855 680 0 680 0 0 -215z m-860 -2055 l0 -320 180 0 180 0 0 320 0 320
250 0 250 0 0 -855 0 -855 -250 0 -250 0 0 320 0 320 -180 0 -180 0 0 -320 0
-320 -250 0 -250 0 0 855 0 855 250 0 250 0 0 -320z m-875 -355 l0 -550 -552
-3 -553 -2 0 375 0 375 375 0 375 0 0 -285 0 -285 90 0 90 0 0 375 0 375 -550
0 -550 0 0 -550 0 -550 638 -2 637 -3 3 -87 3 -88 -731 0 -730 0 0 730 0 730
728 -2 727 -3 0 -550z"/>
<path d="M2490 2525 l0 -195 195 0 195 0 0 195 0 195 -195 0 -195 0 0 -195z"/>
</g>
</svg>
